<?xml version="1.0" encoding="utf-8" standalone="yes"?>
<!DOCTYPE svg PUBLIC "-//W3C//DTD SVG 1.1//EN" "http://www.w3.org/Graphics/SVG/1.1/DTD/svg11.dtd">
<svg style="fill:none;stroke:none;fill-rule:evenodd;clip-rule:evenodd;stroke-linecap:round;stroke-linejoin:round;stroke-miterlimit:1.5;" version="1.1" xmlns="http://www.w3.org/2000/svg" xmlns:xlink="http://www.w3.org/1999/xlink" width="528" height="1003" viewBox="0 0 528 1003"><style class="text-font-style fontImports" data-font-family="Shantell Sans">@import url(https://fonts.googleapis.com/css2?family=Shantell+Sans:wght@300..800&amp;amp;display=block);</style><g id="items" style="isolation: isolate"><g id="blend" style="mix-blend-mode: normal"><g id="g-root-di_zs61bpiy2xol-fill" data-item-order="-31104" transform="translate(192.99993896484375, 672.793701171875)"><g id="di_zs61bpiy2xol-fill-merged" stroke="none" fill="#ffe4cb" fill-opacity="1"><g><path d="M10 82L118 154L226 82L118 10L10 82"></path></g></g></g><g id="g-root-ro_mfgks5iy1jpk-fill" data-item-order="-13824" transform="translate(87, 544.7939453125)"><g id="ro_mfgks5iy1jpk-fill-merged" stroke="none" fill="#d1f4ff" fill-opacity="1"><g><path d="M22 10 H190C190 10 202 10 202 22 V70C202 70 202 82 190 82 H22C22 82 10 82 10 70 V22C10 22 10 10 22 10"></path></g></g></g><g id="g-root-ro_18lb585iy5rt4-fill" data-item-order="-12096" transform="translate(217, 872.7939453125)"><g id="ro_18lb585iy5rt4-fill-merged" stroke="none" fill="#d1f4ff" fill-opacity="1"><g><path d="M22 10 H166C166 10 178 10 178 22 V70C178 70 178 82 166 82 H22C22 82 10 82 10 70 V22C10 22 10 10 22 10"></path></g></g></g><g id="g-root-ro_1hcktv9ixrpc2-fill" data-item-order="-11232" transform="translate(105, 174)"><g id="ro_1hcktv9ixrpc2-fill-merged" stroke="none" fill="#ebebeb" fill-opacity="1"><g><path d="M22 10 H154C154 10 166 10 166 22 V70C166 70 166 82 154 82 H22C22 82 10 82 10 70 V22C10 22 10 10 22 10"></path></g></g></g><g id="g-root-ro_vd4liy05qd-fill" data-item-order="-11232" transform="translate(281, 416.7939453125)"><g id="ro_vd4liy05qd-fill-merged" stroke="none" fill="#d1f4ff" fill-opacity="1"><g><path d="M22 10 H154C154 10 166 10 166 22 V70C166 70 166 82 154 82 H22C22 82 10 82 10 70 V22C10 22 10 10 22 10"></path></g></g></g><g id="g-root-ro_18gbcj9ixxblu-fill" data-item-order="-11232" transform="translate(105, 416.7939453125)"><g id="ro_18gbcj9ixxblu-fill-merged" stroke="none" fill="#d1f4ff" fill-opacity="1"><g><path d="M22 10 H154C154 10 166 10 166 22 V70C166 70 166 82 154 82 H22C22 82 10 82 10 70 V22C10 22 10 10 22 10"></path></g></g></g><g id="g-root-ro_meu3p1iy3097-fill" data-item-order="-8424" transform="translate(17, 672.7939453125)"><g id="ro_meu3p1iy3097-fill-merged" stroke="none" fill="#d1f4ff" fill-opacity="1"><g><path d="M22 10 H154C154 10 166 10 166 22 V52C166 52 166 64 154 64 H22C22 64 10 64 10 52 V22C10 22 10 10 22 10"></path></g></g></g><g id="g-root-di_1q9gsadixrpxo-fill" data-item-order="-8346" transform="translate(112.02850341796875, 301.99951171875)"><g id="di_1q9gsadixrpxo-fill-merged" stroke="none" fill="#ffe4cb" fill-opacity="1"><g><path d="M10.001 39.4L80.971 68.79L151.941 39.4L80.971 10L10.001 39.4"></path></g></g></g><g id="g-root-tx_retrymec_v9umutiy77ke-fill" data-item-order="0" transform="translate(14, 38)"><g id="tx_retrymec_v9umutiy77ke-fill-merged" stroke="none" fill="#484848" fill-opacity="1"><g><text style="font: bold 25px &quot;Shantell Sans&quot;, cursive; white-space: pre;" transform="translate(250, 40)" font-weight="bold" font-size="25px" font-family="'Shantell Sans', cursive"><tspan x="-234.34" y="2" dominant-baseline="ideographic">Retry Mechanism with Dead Letter </tspan><tspan x="-43.68" y="32" dominant-baseline="ideographic">Queue</tspan></text></g></g></g><g id="g-root-tx_yes_1cz9839iy766c-fill" data-item-order="0" transform="translate(313, 816.7939453125)"><g id="tx_yes_1cz9839iy766c-fill-merged" stroke="none" fill="#484848" fill-opacity="1"><g><text style="font: 15px &quot;Shantell Sans&quot;, cursive; white-space: pre;" transform="translate(10, 10)" font-size="15px" font-family="'Shantell Sans', cursive"><tspan x="2" y="19" dominant-baseline="ideographic">Yes</tspan></text></g></g></g><g id="g-root-tx_no_4kfprpiy76df-fill" data-item-order="0" transform="translate(409, 756.7939453125)"><g id="tx_no_4kfprpiy76df-fill-merged" stroke="none" fill="#484848" fill-opacity="1"><g><text style="font: 15px &quot;Shantell Sans&quot;, cursive; white-space: pre;" transform="translate(10, 10)" font-size="15px" font-family="'Shantell Sans', cursive"><tspan x="2" y="19" dominant-baseline="ideographic">No</tspan></text></g></g></g><g id="g-root-tx_no_4ikaidiy77d5-fill" data-item-order="0" transform="translate(253.9705810546875, 343.39697265625)"><g id="tx_no_4ikaidiy77d5-fill-merged" stroke="none" fill="#484848" fill-opacity="1"><g><text style="font: 15px &quot;Shantell Sans&quot;, cursive; white-space: pre;" transform="translate(10, 10)" font-size="15px" font-family="'Shantell Sans', cursive"><tspan x="2" y="19" dominant-baseline="ideographic">No</tspan></text></g></g></g><g id="g-root-tx_yes_v6q9f9iy76de-fill" data-item-order="0" transform="translate(195, 360.7939453125)"><g id="tx_yes_v6q9f9iy76de-fill-merged" stroke="none" fill="#484848" fill-opacity="1"><g><text style="font: 15px &quot;Shantell Sans&quot;, cursive; white-space: pre;" transform="translate(10, 10)" font-size="15px" font-family="'Shantell Sans', cursive"><tspan x="2" y="19" dominant-baseline="ideographic">Yes</tspan></text></g></g></g><g id="g-root-cu_hx56b9iy76yo-fill" data-item-order="2" transform="translate(183, 360.7939453125)"></g><g id="g-root-cu_6hmwliy7669-fill" data-item-order="2" transform="translate(95, 616.7939453125)"></g><g id="g-root-cu_1lw56idiy77k7-fill" data-item-order="2" transform="translate(183, 616.7939453125)"></g><g id="g-root-cu_91i62diy77rf-fill" data-item-order="2" transform="translate(253.9705810546875, 331.39697265625)"></g><g id="g-root-cu_1hgy5h1iy756p-fill" data-item-order="2" transform="translate(301, 816.7939453125)"></g><g id="g-root-cu_4mb511iy75dy-fill" data-item-order="2" transform="translate(183, 488.7939453125)"></g><g id="g-root-cu_mcyofpiy766d-fill" data-item-order="2" transform="translate(183, 246)"></g><g id="g-root-cu_1qbyomtiy76rw-fill" data-item-order="2" transform="translate(95, 146)"></g><g id="g-root-cu_18lb585iy75zg-fill" data-item-order="2" transform="translate(183, 146)"></g><g id="g-root-ic_2_1lr5dthixxd6p-fill" data-item-order="1000000000" transform="translate(117, 437.7939453125)"></g><g id="g-root-ic_1_hriwj9iy06j0-fill" data-item-order="1000000000" transform="translate(293, 437.7939453125)"></g><g id="g-root-tx_nackmess_qnsdv9ixxbsw-fill" data-item-order="1000000000" transform="translate(153, 428.7939453125)"><g id="tx_nackmess_qnsdv9ixxbsw-fill-merged" stroke="none" fill="#1eabda" fill-opacity="1"><g><text style="font: 20px &quot;Shantell Sans&quot;, cursive; white-space: pre;" transform="translate(10, 34)" font-size="20px" font-family="'Shantell Sans', cursive"><tspan x="2" y="1" dominant-baseline="ideographic">Nack </tspan><tspan x="2" y="25" dominant-baseline="ideographic">Message</tspan></text></g></g></g><g id="g-root-tx_processm_1lz9jxxixyqdn-fill" data-item-order="1000000000" transform="translate(329, 428.7939453125)"><g id="tx_processm_1lz9jxxixyqdn-fill-merged" stroke="none" fill="#1eabda" fill-opacity="1"><g><text style="font: 20px &quot;Shantell Sans&quot;, cursive; white-space: pre;" transform="translate(10, 34)" font-size="20px" font-family="'Shantell Sans', cursive"><tspan x="2" y="1" dominant-baseline="ideographic">Process </tspan><tspan x="2" y="25" dominant-baseline="ideographic">Message</tspan></text></g></g></g><g id="g-root-tx_publisht_v8looliy5r7y-fill" data-item-order="1000000000" transform="translate(265, 884.7939453125)"><g id="tx_publisht_v8looliy5r7y-fill-merged" stroke="none" fill="#1eabda" fill-opacity="1"><g><text style="font: 20px &quot;Shantell Sans&quot;, cursive; white-space: pre;" transform="translate(10, 34)" font-size="20px" font-family="'Shantell Sans', cursive"><tspan x="2" y="1" dominant-baseline="ideographic">Publish to </tspan><tspan x="2" y="25" dominant-baseline="ideographic">DLQ</tspan></text></g></g></g><g id="g-root-ic_edge_zqam2diy1laf-fill" data-item-order="1000000000" transform="translate(99, 565.7939453125)"></g><g id="g-root-tx_waitqueu_4mxm45iy1jwm-fill" data-item-order="1000000000" transform="translate(135, 556.7939453125)"><g id="tx_waitqueu_4mxm45iy1jwm-fill-merged" stroke="none" fill="#1eabda" fill-opacity="1"><g><text style="font: 20px &quot;Shantell Sans&quot;, cursive; white-space: pre;" transform="translate(10, 34)" font-size="20px" font-family="'Shantell Sans', cursive"><tspan x="2" y="1" dominant-baseline="ideographic">Wait Queue </tspan><tspan x="2" y="25" dominant-baseline="ideographic">(5s TTL)</tspan></text></g></g></g><g id="g-root-tx_failure_1414bhxixrqwz-fill" data-item-order="1000000000" transform="translate(141, 319.39697265625)"><g id="tx_failure_1414bhxixrqwz-fill-merged" stroke="none" fill="#de8431" fill-opacity="1"><g><text style="font: 20px &quot;Shantell Sans&quot;, cursive; white-space: pre;" transform="translate(52, 22)" font-size="20px" font-family="'Shantell Sans', cursive"><tspan x="-36.27" y="13" dominant-baseline="ideographic">Failure?</tspan></text></g></g></g><g id="g-root-ic_1_zqam2diy2yoa-fill" data-item-order="1000000000" transform="translate(29, 684.7939453125)"></g><g id="g-root-tx_afterttl_4mb511iy30g9-fill" data-item-order="1000000000" transform="translate(65, 687.7939453125)"><g id="tx_afterttl_4mb511iy30g9-fill-merged" stroke="none" fill="#1eabda" fill-opacity="1"><g><text style="font: 20px &quot;Shantell Sans&quot;, cursive; white-space: pre;" transform="translate(10, 22)" font-size="20px" font-family="'Shantell Sans', cursive"><tspan x="2" y="13" dominant-baseline="ideographic">After TTL</tspan></text></g></g></g><g id="g-root-tx_maxretri_9402etiy2yoc-fill" data-item-order="1000000000" transform="translate(247, 708.7939453125)"><g id="tx_maxretri_9402etiy2yoc-fill-merged" stroke="none" fill="#de8431" fill-opacity="1"><g><text style="font: 20px &quot;Shantell Sans&quot;, cursive; white-space: pre;" transform="translate(64, 46)" font-size="20px" font-family="'Shantell Sans', cursive"><tspan x="-21.07" y="-11" dominant-baseline="ideographic">Max </tspan><tspan x="-33.95" y="13" dominant-baseline="ideographic">Retries </tspan><tspan x="-49.85" y="37" dominant-baseline="ideographic">Exceeded?</tspan></text></g></g></g><g id="g-root-tx_messagea_13z8w8lixrrwo-fill" data-item-order="1000000000" transform="translate(153, 186)"><g id="tx_messagea_13z8w8lixrrwo-fill-merged" stroke="none" fill="#969696" fill-opacity="1"><g><text style="font: 20px &quot;Shantell Sans&quot;, cursive; white-space: pre;" transform="translate(10, 34)" font-size="20px" font-family="'Shantell Sans', cursive"><tspan x="2" y="1" dominant-baseline="ideographic">Message </tspan><tspan x="2" y="25" dominant-baseline="ideographic">Arrives</tspan></text></g></g></g><g id="g-root-ic_infa_24batixrqbt-fill" data-item-order="1000000000" transform="translate(117, 195)"></g><g id="g-root-ic_thro_1qbyomtiy5slr-fill" data-item-order="1000000000" transform="translate(229, 893.7939453125)"></g><g id="g-root-di_zs61bpiy2xol-stroke" data-item-order="-31104" transform="translate(192.99993896484375, 672.793701171875)"></g><g id="g-root-ro_mfgks5iy1jpk-stroke" data-item-order="-13824" transform="translate(87, 544.7939453125)"></g><g id="g-root-ro_18lb585iy5rt4-stroke" data-item-order="-12096" transform="translate(217, 872.7939453125)"></g><g id="g-root-ro_1hcktv9ixrpc2-stroke" data-item-order="-11232" transform="translate(105, 174)"></g><g id="g-root-ro_vd4liy05qd-stroke" data-item-order="-11232" transform="translate(281, 416.7939453125)"></g><g id="g-root-ro_18gbcj9ixxblu-stroke" data-item-order="-11232" transform="translate(105, 416.7939453125)"></g><g id="g-root-ro_meu3p1iy3097-stroke" data-item-order="-8424" transform="translate(17, 672.7939453125)"></g><g id="g-root-di_1q9gsadixrpxo-stroke" data-item-order="-8346" transform="translate(112.02850341796875, 301.99951171875)"></g><g id="g-root-tx_retrymec_v9umutiy77ke-stroke" data-item-order="0" transform="translate(14, 38)"></g><g id="g-root-tx_yes_1cz9839iy766c-stroke" data-item-order="0" transform="translate(313, 816.7939453125)"></g><g id="g-root-tx_no_4kfprpiy76df-stroke" data-item-order="0" transform="translate(409, 756.7939453125)"></g><g id="g-root-tx_no_4ikaidiy77d5-stroke" data-item-order="0" transform="translate(253.9705810546875, 343.39697265625)"></g><g id="g-root-tx_yes_v6q9f9iy76de-stroke" data-item-order="0" transform="translate(195, 360.7939453125)"></g><g id="g-root-cu_hx56b9iy76yo-stroke" data-item-order="2" transform="translate(183, 360.7939453125)"><g id="cu_hx56b9iy76yo-stroke" fill="none" stroke-linecap="round" stroke-linejoin="round" stroke-miterlimit="4" stroke="#484848" stroke-width="2" stroke-opacity="1"><g><path d="M 10 10L 10 38L 10 64"></path><path d="M 3.5 58L 10 64.5L 16.5 58" stroke-dasharray="none"></path></g></g></g><g id="g-root-cu_6hmwliy7669-stroke" data-item-order="2" transform="translate(95, 616.7939453125)"><g id="cu_6hmwliy7669-stroke" fill="none" stroke-linecap="round" stroke-linejoin="round" stroke-miterlimit="4" stroke="#484848" stroke-width="2" stroke-opacity="1"><g><path d="M 98 10L 98 24L 98 38L 54 38L 10 38L 10 52L 10 64"></path><path d="M 3.5 58L 10 64.5L 16.5 58" stroke-dasharray="none"></path></g></g></g><g id="g-root-cu_1lw56idiy77k7-stroke" data-item-order="2" transform="translate(183, 616.7939453125)"><g id="cu_1lw56idiy77k7-stroke" fill="none" stroke-linecap="round" stroke-linejoin="round" stroke-miterlimit="4" stroke="#484848" stroke-width="2" stroke-opacity="1"><g><path d="M 10 10L 10 24L 10 38L 69 38L 128 38L 128 52L 128 64"></path><path d="M 121.5 58L 128 64.5L 134.5 58" stroke-dasharray="none"></path></g></g></g><g id="g-root-cu_91i62diy77rf-stroke" data-item-order="2" transform="translate(253.9705810546875, 331.39697265625)"><g id="cu_91i62diy77rf-stroke" fill="none" stroke-linecap="round" stroke-linejoin="round" stroke-miterlimit="4" stroke="#484848" stroke-width="2" stroke-opacity="1"><g><path d="M 10 10L 62.5 10L 115 10L 115 52.7L 115 93.4"></path><path d="M 108.5 87.4L 115 93.9L 121.5 87.4" stroke-dasharray="none"></path></g></g></g><g id="g-root-cu_1hgy5h1iy756p-stroke" data-item-order="2" transform="translate(301, 816.7939453125)"><g id="cu_1hgy5h1iy756p-stroke" fill="none" stroke-linecap="round" stroke-linejoin="round" stroke-miterlimit="4" stroke="#484848" stroke-width="2" stroke-opacity="1"><g><path d="M 10 10L 10 38L 10 64"></path><path d="M 3.5 58L 10 64.5L 16.5 58" stroke-dasharray="none"></path></g></g></g><g id="g-root-cu_4mb511iy75dy-stroke" data-item-order="2" transform="translate(183, 488.7939453125)"><g id="cu_4mb511iy75dy-stroke" fill="none" stroke-linecap="round" stroke-linejoin="round" stroke-miterlimit="4" stroke="#484848" stroke-width="2" stroke-opacity="1"><g><path d="M 10 10L 10 38L 10 64"></path><path d="M 3.5 58L 10 64.5L 16.5 58" stroke-dasharray="none"></path></g></g></g><g id="g-root-cu_mcyofpiy766d-stroke" data-item-order="2" transform="translate(183, 246)"><g id="cu_mcyofpiy766d-stroke" fill="none" stroke-linecap="round" stroke-linejoin="round" stroke-miterlimit="4" stroke="#484848" stroke-width="2" stroke-opacity="1"><g><path d="M 10 10L 10 38L 10 64"></path><path d="M 3.5 58L 10 64.5L 16.5 58" stroke-dasharray="none"></path></g></g></g><g id="g-root-cu_1qbyomtiy76rw-stroke" data-item-order="2" transform="translate(95, 146)"><g id="cu_1qbyomtiy76rw-stroke" fill="none" stroke-linecap="round" stroke-linejoin="round" stroke-miterlimit="4" stroke="#484848" stroke-width="2" stroke-opacity="1"><g><path d="M 10 590.8L 10 604.8L 10 618.8L 186 618.8L 362 618.8L 362 563.8L 362 508.8L 373 508.8L 384 508.8L 384 259.4L 384 10L 241 10L 98 10L 98 24L 98 36"></path><path d="M 91.5 30L 98 36.5L 104.5 30" stroke-dasharray="none"></path></g></g></g><g id="g-root-cu_18lb585iy75zg-stroke" data-item-order="2" transform="translate(183, 146)"><g id="cu_18lb585iy75zg-stroke" fill="none" stroke-linecap="round" stroke-linejoin="round" stroke-miterlimit="4" stroke="#484848" stroke-width="2" stroke-opacity="1"><g><path d="M 236 608.8L 277 608.8L 318 608.8L 318 558.8L 318 508.8L 307 508.8L 296 508.8L 296 259.4L 296 10L 153 10L 10 10L 10 24L 10 36"></path><path d="M 3.5 30L 10 36.5L 16.5 30" stroke-dasharray="none"></path></g></g></g><g id="g-root-ic_2_1lr5dthixxd6p-stroke" data-item-order="1000000000" transform="translate(117, 437.7939453125)"><g id="ic_2_1lr5dthixxd6p-stroke" fill="none" stroke-linecap="round" stroke-linejoin="round" stroke-miterlimit="4" stroke="#1eabda" stroke-width="2" stroke-opacity="1"><g><path d="M 39.375 29.535L 36.875 29.535C 36.184647 29.535 35.625 28.975355 35.625 28.285L 35.625 13.285C 35.625 12.594645 36.184647 12.035 36.875 12.035L 39.375 12.035M 35.625 15.785C 26.45125 11.125 26.89875 11.74125 19.043751 11.74125C 15.75 11.74125 14.09625 13.885 13.125 17.026249L 13.125 17.046249L 10.74125 25.046249L 10.74125 25.061249C 10.512644 25.817074 10.654562 26.636471 11.124042 27.271389C 11.59352 27.906305 12.335366 28.282097 13.125 28.285L 19.25 28.285C 20.025515 28.284954 20.757139 28.644814 21.230474 29.259123C 21.703812 29.87343 21.865255 30.672625 21.6675 31.422501L 20.564999 35.602501C 20.301218 36.60569 20.794422 37.653687 21.735571 38.089813C 22.67672 38.52594 23.795128 38.224762 24.389999 37.375L 30.502501 28.715C 30.97086 28.051174 31.73258 27.656328 32.544998 27.65625L 35.625 27.65625"></path></g></g></g><g id="g-root-ic_1_hriwj9iy06j0-stroke" data-item-order="1000000000" transform="translate(293, 437.7939453125)"><g id="ic_1_hriwj9iy06j0-stroke" fill="none" stroke-linecap="round" stroke-linejoin="round" stroke-miterlimit="4" stroke="#1eabda" stroke-width="2" stroke-opacity="1"><g><path d="M 39.375 10.625L 25.924999 27C 25.70517 27.294552 25.366846 27.477428 25 27.5C 24.634258 27.509991 24.282501 27.359236 24.037498 27.0875L 20 22.5M 34.849998 20.912498C 35.119976 21.502941 35.622185 21.955383 36.237499 22.162498L 37.8125 22.725C 38.746925 23.059513 39.370449 23.945005 39.370449 24.9375C 39.370449 25.929996 38.746925 26.815487 37.8125 27.15L 36.25 27.775C 35.634686 27.982117 35.132477 28.434559 34.862499 29.025C 34.59964 29.63106 34.59964 30.318943 34.862499 30.924999L 35.625 32.5C 36.044769 33.396019 35.858315 34.458992 35.158653 35.158653C 34.458992 35.858315 33.396019 36.044769 32.5 35.625L 30.987501 34.900002C 30.381441 34.637142 29.69356 34.637142 29.087502 34.900002C 28.497059 35.169975 28.044615 35.672188 27.8375 36.287502L 27.275 37.862503C 26.940487 38.796925 26.054995 39.420448 25.0625 39.420448C 24.070004 39.420448 23.184513 38.796925 22.85 37.862499L 22.225 36.25C 22.017883 35.634686 21.565441 35.132477 20.975 34.862499C 20.36894 34.59964 19.681059 34.59964 19.075001 34.862499L 17.5 35.625C 16.603981 36.044769 15.54101 35.858315 14.841347 35.158653C 14.141683 34.458992 13.955231 33.396019 14.375 32.5L 15.1 30.987501C 15.36286 30.381441 15.36286 29.69356 15.1 29.087502C 14.830026 28.497059 14.327812 28.044615 13.7125 27.8375L 12.1375 27.275C 11.203076 26.940487 10.579551 26.054995 10.579551 25.0625C 10.579551 24.070004 11.203076 23.184513 12.1375 22.85L 13.75 22.225C 14.365313 22.017883 14.867525 21.565441 15.1375 20.975C 15.40036 20.36894 15.40036 19.681059 15.1375 19.075001L 14.375 17.5C 13.955231 16.603981 14.141683 15.54101 14.841347 14.841347C 15.54101 14.141683 16.603981 13.955231 17.5 14.375L 19.012501 15.1C 19.618559 15.36286 20.306442 15.36286 20.9125 15.1C 21.519032 14.852593 21.994774 14.363258 22.225 13.75L 22.787498 12.175C 23.122013 11.240576 24.007504 10.61705 25 10.61705C 25.992495 10.61705 26.877987 11.240576 27.2125 12.175L 27.775 13.75C 27.982117 14.365313 28.434559 14.867525 29.025 15.1375"></path></g></g></g><g id="g-root-tx_nackmess_qnsdv9ixxbsw-stroke" data-item-order="1000000000" transform="translate(153, 428.7939453125)"></g><g id="g-root-tx_processm_1lz9jxxixyqdn-stroke" data-item-order="1000000000" transform="translate(329, 428.7939453125)"></g><g id="g-root-tx_publisht_v8looliy5r7y-stroke" data-item-order="1000000000" transform="translate(265, 884.7939453125)"></g><g id="g-root-ic_edge_zqam2diy1laf-stroke" data-item-order="1000000000" transform="translate(99, 565.7939453125)"><g id="ic_edge_zqam2diy1laf-stroke" fill="none" stroke-linecap="round" stroke-linejoin="round" stroke-miterlimit="4" stroke="#1eabda" stroke-width="2" stroke-opacity="1"><g><path d="M 10 10M 31.875 11.25L 18.125 11.25L 18.125 38.75L 31.875 38.75M 18.125 23.854124L 29.583376 23.854124"></path></g></g></g><g id="g-root-tx_waitqueu_4mxm45iy1jwm-stroke" data-item-order="1000000000" transform="translate(135, 556.7939453125)"></g><g id="g-root-tx_failure_1414bhxixrqwz-stroke" data-item-order="1000000000" transform="translate(141, 319.39697265625)"></g><g id="g-root-ic_1_zqam2diy2yoa-stroke" data-item-order="1000000000" transform="translate(29, 684.7939453125)"><g id="ic_1_zqam2diy2yoa-stroke" fill="none" stroke-linecap="round" stroke-linejoin="round" stroke-miterlimit="4" stroke="#1eabda" stroke-width="2" stroke-opacity="1"><g><path d="M 22 19.655001C 19.743204 19.022556 17.32045 19.484282 15.454453 20.902439C 13.588457 22.320597 12.494902 24.531267 12.5 26.875002L 12.5 33.75C 12.5 34.785534 11.660534 35.625 10.625 35.625L 29.375 35.625C 28.339466 35.625 27.5 34.785534 27.5 33.75L 27.5 27.1075M 21.768749 38.125C 21.504185 38.874672 20.795614 39.376015 20.000626 39.376015C 19.205637 39.376015 18.497066 38.874672 18.2325 38.125M 20 16.876249L 20 19.376249M 24.375 18.127501C 24.375002 22.269636 27.732864 25.627501 31.875 25.627501C 36.017136 25.627501 39.375 22.269636 39.375 18.127501C 39.375 13.985365 36.017136 10.627501 31.875 10.627501C 27.732864 10.627501 24.375002 13.985365 24.375002 18.127501ZM 34.375 18.127501L 31.875 18.127501L 31.875 14.377501"></path></g></g></g><g id="g-root-tx_afterttl_4mb511iy30g9-stroke" data-item-order="1000000000" transform="translate(65, 687.7939453125)"></g><g id="g-root-tx_maxretri_9402etiy2yoc-stroke" data-item-order="1000000000" transform="translate(247, 708.7939453125)"></g><g id="g-root-tx_messagea_13z8w8lixrrwo-stroke" data-item-order="1000000000" transform="translate(153, 186)"></g><g id="g-root-ic_infa_24batixrqbt-stroke" data-item-order="1000000000" transform="translate(117, 195)"><g id="ic_infa_24batixrqbt-stroke" fill="none" stroke-linecap="round" stroke-linejoin="round" stroke-miterlimit="4" stroke="#969696" stroke-width="2" stroke-opacity="1"><g><path d="M 21.25 31.25L 22.682499 29.817501C 22.799755 29.699947 22.958967 29.633883 23.125 29.633883C 23.291033 29.633883 23.450245 29.699947 23.567501 29.817501L 25 31.25L 26.432499 29.817501C 26.549755 29.699947 26.708967 29.633883 26.875 29.633883C 27.041033 29.633883 27.200245 29.699947 27.317501 29.817501L 28.75 31.25M 11.875 15.625L 38.125 15.625C 38.125 15.625 39.375 15.625 39.375 16.875L 39.375 33.125C 39.375 33.125 39.375 34.375 38.125 34.375L 11.875 34.375C 11.875 34.375 10.625 34.375 10.625 33.125L 10.625 16.875C 10.625 16.875 10.625 15.625 11.875 15.625M 38.927502 34.083752L 11.0725 15.91625M 38.927502 15.91625L 11.0725 34.083752"></path></g></g></g><g id="g-root-ic_thro_1qbyomtiy5slr-stroke" data-item-order="1000000000" transform="translate(229, 893.7939453125)"><g id="ic_thro_1qbyomtiy5slr-stroke" fill="none" stroke-linecap="round" stroke-linejoin="round" stroke-miterlimit="4" stroke="#1eabda" stroke-width="2" stroke-opacity="1"><g><path d="M 28.125 13.75C 28.125 15.47589 29.524111 16.875 31.25 16.875C 32.975891 16.875 34.375 15.47589 34.375 13.75C 34.375 12.02411 32.975891 10.625 31.25 10.625C 29.524111 10.625 28.125 12.02411 28.125 13.75M 25.362499 23.75C 29.275 23.200001 30.1 21.65 31.1625 19.674999L 31.487501 19.075001C 31.847494 18.361057 32.620625 17.953953 33.412979 18.061104C 34.205334 18.168255 34.842564 18.766087 35 19.550001L 39.375 37.049999C 39.565765 37.710194 39.380085 38.421852 38.89109 38.90469C 38.402096 39.387527 37.688145 39.564175 37.030418 39.365063C 36.372696 39.165947 35.876595 38.622978 35.737499 37.950001L 34.174999 31.700001C 33.037498 33.399998 32.700001 34.487499 31.875 37.950001C 31.633375 38.95792 30.62042 39.579124 29.612499 39.337498C 28.60458 39.095875 27.983376 38.08292 28.225 37.075001C 29.475 31.724998 29.9625 30.987501 32.987499 27.075001L 32.387501 24.65C 30.608738 26.312689 28.315557 27.318161 25.887501 27.5C 24.851967 27.644976 23.894976 26.923035 23.75 25.887501C 23.605024 24.851967 24.326965 23.894976 25.362499 23.75ZM 11.875 35.737499L 11.875 26.875L 21.049999 26.875C 21.416719 26.870846 21.766762 27.02795 22.007412 27.304697C 22.24806 27.581442 22.355036 27.949909 22.299999 28.3125L 20.800001 38.3125C 20.706537 38.928799 20.173304 39.38205 19.549999 39.375L 12.5 39.375M 11.875 26.875L 18.75 18.125M 10.625 37.5C 10.625 38.535534 11.464466 39.375 12.5 39.375C 13.535534 39.375 14.375 38.535534 14.375 37.5C 14.375 36.464466 13.535534 35.625 12.5 35.625C 11.464466 35.625 10.625 36.464466 10.625 37.5M 18.125 23.125C 18.125 23.815357 18.684645 24.375 19.375 24.375C 20.065357 24.375 20.625 23.815357 20.625 23.125C 20.625 22.434643 20.065357 21.875 19.375 21.875C 18.684645 21.875 18.125 22.434643 18.125 23.125M 22.5 20.3125C 22.5 20.139912 22.360088 20 22.1875 20L 22.1875 20C 22.014912 20 21.875 20.139912 21.875 20.3125C 21.875 20.485088 22.014912 20.625 22.1875 20.625C 22.360088 20.625 22.5 20.485088 22.5 20.3125"></path></g></g></g></g></g><path id="w13z95pxklz571" d="M65.283 12.757a.35.35 0 0 0 .584.157l5.203-5.141-6.183 3.523.396 1.461zm-2.216-11.7a.35.35 0 0 0-.522.305v3.111l3.276-1.868-2.754-1.548zm3.728 2.105l-4.25 2.421v2.445l6.391-3.644-2.141-1.222zm4.708 3.303a.35.35 0 0 0 0-.609l-1.592-.9-7.365 4.199v1.782a.35.35 0 0 0 .523.305l8.435-4.777z M44.542 2.513c0-.433.355-.783.792-.783s.792.35.792.783-.355.783-.792.783-.792-.35-.792-.783zm59.171 0c0-.433.355-.783.792-.783s.792.35.792.783-.355.783-.792.783-.792-.35-.792-.783zm-85.951 7.636h-1.27v-.487c-.276.201-.864.609-1.881.609-1.202 0-2.274-.794-2.137-2.078.118-1.106 1.153-1.584 1.848-1.727l2.17-.345c0-.539-.29-.956-1.064-1.006s-1.21.305-1.571 1.017l-1.124-.605c1.218-2.631 5.029-1.764 5.029.414v4.207zm-1.27-2.86c.006.396-.062 1.112-.819 1.59-.587.37-1.841.299-1.903-.395-.049-.555.461-.791.906-.898l1.816-.297zm72.662 2.86h-1.27v-.487c-.276.201-.864.609-1.881.609-1.202 0-2.274-.794-2.137-2.078.118-1.106 1.153-1.584 1.848-1.727l2.17-.345c0-.539-.29-.956-1.064-1.006s-1.21.305-1.571 1.017l-1.124-.605c1.218-2.631 5.029-1.764 5.029.414v4.207zm-1.27-2.86c.006.396-.062 1.112-.82 1.59-.587.37-1.841.299-1.903-.395-.049-.555.461-.791.906-.898l1.816-.297zM99.096 10.149H97.85v-8.45h1.246v4.895l2.68-2.559h1.738l-2.633 2.535 2.715 3.578h-1.556l-2.077-2.707-.867.844v1.863zm6.053-6.114h-1.255v6.113h1.255V4.035zm-59.2 0h-1.255v6.113h1.255V4.035zm5.584 6.113V1.697h1.255v2.695c.361-.346 1-.485 1.47-.485 1.452 0 2.477 1.082 2.457 2.448v3.792h-1.27v-3.68c0-.408-.214-1.339-1.315-1.339-.968 0-1.342.756-1.342 1.339v3.681h-1.255zm-4.76-4.894V4.039h.621a.45.45 0 0 0 .45-.45v-.855h1.251v1.305h1.309v1.215h-1.309v3.109c0 .293.105.664.648.664.365 0 .531-.035.736-.07v1.137s-.361.113-.857.113c-1.398 0-1.777-1.051-1.777-1.788V5.254h-1.071zM36.528 4.039h-1.394l2.191 6.106h1.125l1.234-3.918 1.238 3.918h1.129l2.188-6.106h-1.383l-1.359 3.93-1.256-3.93h-1.124l-1.242 3.957-1.348-3.957zM26.212 7.141c-.02 1.566 1.187 3.129 3.223 3.129 1.566 0 2.383-.918 2.734-1.719L31.172 8c-.315.399-.801 1.094-1.738 1.094-1.145 0-1.825-.781-1.891-1.52h4.625c.074-.284.148-.995-.03-1.559-.336-1.064-1.221-2.102-2.839-2.102s-3.088 1.152-3.088 3.227zm1.363-.75h3.348c-.055-.43-.566-1.301-1.623-1.301a1.79 1.79 0 0 0-1.725 1.301zm-8.758.75c.038 1.758 1.277 3.133 3.145 3.133 1.074 0 1.723-.477 1.961-.672v.547h1.242V1.703h-1.258v2.888c-.414-.36-1.062-.68-1.93-.68-1.91 0-3.198 1.473-3.16 3.23zm1.309-.08c0 1.119.723 1.978 1.836 1.978a1.88 1.88 0 0 0 1.94-1.904c0-1.371-1.011-1.99-1.972-1.99s-1.805.798-1.805 1.916zm76.683-.028C96.771 5.275 95.532 3.9 93.664 3.9c-1.074 0-1.723.477-1.961.672v-.547h-1.242v8.22h1.258V9.583c.414.36 1.063.68 1.93.68 1.91 0 3.198-1.473 3.16-3.23zm-1.309.08c0-1.119-.723-1.978-1.836-1.978a1.88 1.88 0 0 0-1.94 1.904c0 1.371 1.011 1.99 1.972 1.99S95.5 8.231 95.5 7.113zM106.441 10.173V4.036h1.254v.382c.361-.346 1-.485 1.47-.485 1.452 0 2.477 1.082 2.457 2.448v3.792h-1.27V6.492c0-.408-.214-1.339-1.315-1.339-.969 0-1.342.756-1.342 1.339v3.681h-1.254zm-30.383-.021V1.824h1.084l4.215 5.777V1.824h1.32v8.328h-1.094l-4.207-5.796v5.796h-1.319zM5.24 10.149H4V2.377h1.014l2.664 3.597 2.654-3.592h1.03v7.766h-1.256V4.762L7.678 8.068 5.24 4.742v5.407z" transform="translate(20, 968.7939453125)" fill="#80808088" stroke="none"></path></svg>